<?xml version="1.0" encoding="UTF-8" standalone="no"?>
<!DOCTYPE svg PUBLIC "-//W3C//DTD SVG 1.1//EN" "http://www.w3.org/Graphics/SVG/1.1/DTD/svg11.dtd">
<svg width="100%" height="100%" viewBox="0 0 6224 644" version="1.1" xmlns="http://www.w3.org/2000/svg" xmlns:xlink="http://www.w3.org/1999/xlink" xml:space="preserve" style="fill-rule:evenodd;clip-rule:evenodd;stroke-linejoin:round;stroke-miterlimit:1.41421;">
    <g transform="matrix(1,0,0,1,-91.2494,-1973.26)">
        <g>
            <g>
                <g transform="matrix(2.35499,0,0,1.06822,91.2494,-1130.02)">
                    <rect x="0" y="3182.43" width="2480.32" height="325.444" style="fill:rgb(22,108,155);"/>
                </g>
                <g transform="matrix(1.10665,0,0,1.10665,286.803,-1247.64)">
                    <path d="M227.621,3181.23L-176.708,3182.43C-159.967,3180.14 -138.375,3176.86 -121.756,3170.05C-100.336,3161.26 -82.039,3145.05 -66.325,3128.42C-9.694,3068.5 -11.026,3067.66 41.194,3004.19C67.985,2971.63 95.878,2934.27 136.336,2917.85C179.875,2900.17 232.232,2915.26 260.001,2953.32C284.479,2986.88 290.681,3047.73 256.169,3077.28C231.47,3098.43 179.86,3093.92 182.853,3052.7C183.351,3045.84 190.074,3054.49 190.594,3055.19C195.25,3061.51 197.631,3068.58 205.488,3072.07C223.375,3080 245.858,3069.3 250.8,3050.2C260.193,3013.88 242.626,2961.38 201.474,2953.66C189.063,2951.34 174.488,2953.5 162.704,2957.48C156.887,2959.44 151.2,2962 146.04,2965.33C94.895,2998.31 79.793,3076.27 117.58,3125.06C134.38,3146.74 155.554,3163 179.808,3172.31C186.026,3174.69 199.629,3179.1 221.058,3175.1C221.536,3175.01 221.985,3174.82 222.442,3174.66C252.814,3164.23 259.836,3178.08 227.621,3181.23ZM227.621,3181.23L230.601,3181.22C229.605,3181.23 228.612,3181.24 227.621,3181.23ZM40.365,3095.3C51.107,3095.3 59.828,3104.02 59.828,3114.76C59.828,3125.5 51.107,3134.22 40.365,3134.22C29.624,3134.22 20.903,3125.5 20.903,3114.76C20.903,3104.02 29.624,3095.3 40.365,3095.3Z" style="fill:rgb(22,108,155);"/>
                    <g transform="matrix(1,0,0,1,359.714,0)">
                        <path d="M227.621,3181.23L-176.708,3182.43C-159.967,3180.14 -138.375,3176.86 -121.756,3170.05C-100.336,3161.26 -82.039,3145.05 -66.325,3128.42C-9.694,3068.5 -11.026,3067.66 41.194,3004.19C67.985,2971.63 95.878,2934.27 136.336,2917.85C179.875,2900.17 232.232,2915.26 260.001,2953.32C284.479,2986.88 290.681,3047.73 256.169,3077.28C231.47,3098.43 179.86,3093.92 182.853,3052.7C183.351,3045.84 190.074,3054.49 190.594,3055.19C195.25,3061.51 197.631,3068.58 205.488,3072.07C223.375,3080 245.858,3069.3 250.8,3050.2C260.193,3013.88 242.626,2961.38 201.474,2953.66C189.063,2951.34 174.488,2953.5 162.704,2957.48C156.887,2959.44 151.2,2962 146.04,2965.33C94.895,2998.31 79.793,3076.27 117.58,3125.06C134.38,3146.74 155.554,3163 179.808,3172.31C186.026,3174.69 199.629,3179.1 221.058,3175.1C221.536,3175.01 221.985,3174.82 222.442,3174.66C252.814,3164.23 259.836,3178.08 227.621,3181.23Z" style="fill:rgb(22,108,155);"/>
                    </g>
                    <g transform="matrix(1,0,0,1,359.714,0)">
                        <path d="M227.621,3181.23L230.601,3181.22C229.605,3181.23 228.612,3181.24 227.621,3181.23Z" style="fill:rgb(22,108,155);"/>
                    </g>
                    <g transform="matrix(1,0,0,1,359.714,0)">
                        <circle cx="40.365" cy="3114.76" r="19.462" style="fill:white;"/>
                    </g>
                    <circle cx="40.365" cy="3114.76" r="19.462" style="fill:white;"/>
                    <g transform="matrix(1,0,0,1,718.632,4.54747e-13)">
                        <path d="M227.621,3181.23L-176.708,3182.43C-159.967,3180.14 -138.375,3176.86 -121.756,3170.05C-100.336,3161.26 -82.039,3145.05 -66.325,3128.42C-9.694,3068.5 -11.026,3067.66 41.194,3004.19C67.985,2971.63 95.878,2934.27 136.336,2917.85C179.875,2900.17 232.232,2915.26 260.001,2953.32C284.479,2986.88 290.681,3047.73 256.169,3077.28C231.47,3098.43 179.86,3093.92 182.853,3052.7C183.351,3045.84 190.074,3054.49 190.594,3055.19C195.25,3061.51 197.631,3068.58 205.488,3072.07C223.375,3080 245.858,3069.3 250.8,3050.2C260.193,3013.88 242.626,2961.38 201.474,2953.66C189.063,2951.34 174.488,2953.5 162.704,2957.48C156.887,2959.44 151.2,2962 146.04,2965.33C94.895,2998.31 79.793,3076.27 117.58,3125.06C134.38,3146.74 155.554,3163 179.808,3172.31C186.026,3174.69 199.629,3179.1 221.058,3175.1C221.536,3175.01 221.985,3174.82 222.442,3174.66C252.814,3164.23 259.836,3178.08 227.621,3181.23Z" style="fill:rgb(22,108,155);"/>
                    </g>
                    <g transform="matrix(1,0,0,1,718.632,4.54747e-13)">
                        <path d="M227.621,3181.23L230.601,3181.22C229.605,3181.23 228.612,3181.24 227.621,3181.23Z" style="fill:rgb(22,108,155);"/>
                    </g>
                    <g transform="matrix(1,0,0,1,718.632,4.54747e-13)">
                        <circle cx="40.365" cy="3114.76" r="19.462" style="fill:white;"/>
                    </g>
                    <g transform="matrix(1,0,0,1,1078.35,0)">
                        <path d="M227.621,3181.23L-176.708,3182.43C-159.967,3180.14 -138.375,3176.86 -121.756,3170.05C-100.336,3161.26 -82.039,3145.05 -66.325,3128.42C-9.694,3068.5 -11.026,3067.66 41.194,3004.19C67.985,2971.63 95.878,2934.27 136.336,2917.85C179.875,2900.17 232.232,2915.26 260.001,2953.32C284.479,2986.88 290.681,3047.73 256.169,3077.28C231.47,3098.43 179.86,3093.92 182.853,3052.7C183.351,3045.84 190.074,3054.49 190.594,3055.19C195.25,3061.51 197.631,3068.58 205.488,3072.07C223.375,3080 245.858,3069.3 250.8,3050.2C260.193,3013.88 242.626,2961.38 201.474,2953.66C189.063,2951.34 174.488,2953.5 162.704,2957.48C156.887,2959.44 151.2,2962 146.04,2965.33C94.895,2998.31 79.793,3076.27 117.58,3125.06C134.38,3146.74 155.554,3163 179.808,3172.31C186.026,3174.69 199.629,3179.1 221.058,3175.1C221.536,3175.01 221.985,3174.82 222.442,3174.66C252.814,3164.23 259.836,3178.08 227.621,3181.23Z" style="fill:rgb(22,108,155);"/>
                    </g>
                    <g transform="matrix(1,0,0,1,1078.35,0)">
                        <path d="M227.621,3181.23L230.601,3181.22C229.605,3181.23 228.612,3181.24 227.621,3181.23Z" style="fill:rgb(22,108,155);"/>
                    </g>
                    <g transform="matrix(1,0,0,1,1078.35,0)">
                        <circle cx="40.365" cy="3114.76" r="19.462" style="fill:white;"/>
                    </g>
                    <g transform="matrix(1,0,0,1,1437.26,0)">
                        <path d="M227.621,3181.23L-176.708,3182.43C-159.967,3180.14 -138.375,3176.86 -121.756,3170.05C-100.336,3161.26 -82.039,3145.05 -66.325,3128.42C-9.694,3068.5 -11.026,3067.66 41.194,3004.19C67.985,2971.63 95.878,2934.27 136.336,2917.85C179.875,2900.17 232.232,2915.26 260.001,2953.32C284.479,2986.88 290.681,3047.73 256.169,3077.28C231.47,3098.43 179.86,3093.92 182.853,3052.7C183.351,3045.84 190.074,3054.49 190.594,3055.19C195.25,3061.51 197.631,3068.58 205.488,3072.07C223.375,3080 245.858,3069.3 250.8,3050.2C260.193,3013.88 242.626,2961.38 201.474,2953.66C189.063,2951.34 174.488,2953.5 162.704,2957.48C156.887,2959.44 151.2,2962 146.04,2965.33C94.895,2998.31 79.793,3076.27 117.58,3125.06C134.38,3146.74 155.554,3163 179.808,3172.31C186.026,3174.69 199.629,3179.1 221.058,3175.1C221.536,3175.01 221.985,3174.82 222.442,3174.66C252.814,3164.23 259.836,3178.08 227.621,3181.23Z" style="fill:rgb(22,108,155);"/>
                    </g>
                    <g transform="matrix(1,0,0,1,1437.26,0)">
                        <path d="M227.621,3181.23L230.601,3181.22C229.605,3181.23 228.612,3181.24 227.621,3181.23Z" style="fill:rgb(22,108,155);"/>
                    </g>
                    <g transform="matrix(1,0,0,1,1437.26,0)">
                        <circle cx="40.365" cy="3114.76" r="19.462" style="fill:white;"/>
                    </g>
                    <g transform="matrix(1,0,0,1,1796.98,4.54747e-13)">
                        <path d="M227.621,3181.23L-176.708,3182.43C-159.967,3180.14 -138.375,3176.86 -121.756,3170.05C-100.336,3161.26 -82.039,3145.05 -66.325,3128.42C-9.694,3068.5 -11.026,3067.66 41.194,3004.19C67.985,2971.63 95.878,2934.27 136.336,2917.85C179.875,2900.17 232.232,2915.26 260.001,2953.32C284.479,2986.88 290.681,3047.73 256.169,3077.28C231.47,3098.43 179.86,3093.92 182.853,3052.7C183.351,3045.84 190.074,3054.49 190.594,3055.19C195.25,3061.51 197.631,3068.58 205.488,3072.07C223.375,3080 245.858,3069.3 250.8,3050.2C260.193,3013.88 242.626,2961.38 201.474,2953.66C189.063,2951.34 174.488,2953.5 162.704,2957.48C156.887,2959.44 151.2,2962 146.04,2965.33C94.895,2998.31 79.793,3076.27 117.58,3125.06C134.38,3146.74 155.554,3163 179.808,3172.31C186.026,3174.69 199.629,3179.1 221.058,3175.1C221.536,3175.01 221.985,3174.82 222.442,3174.66C252.814,3164.23 259.836,3178.08 227.621,3181.23Z" style="fill:rgb(22,108,155);"/>
                    </g>
                    <g transform="matrix(1,0,0,1,1796.98,4.54747e-13)">
                        <path d="M227.621,3181.23L230.601,3181.22C229.605,3181.23 228.612,3181.24 227.621,3181.23Z" style="fill:rgb(22,108,155);"/>
                    </g>
                    <g transform="matrix(1,0,0,1,1796.98,4.54747e-13)">
                        <circle cx="40.365" cy="3114.76" r="19.462" style="fill:white;"/>
                    </g>
                    <g transform="matrix(1,0,0,1,2155.9,4.54747e-13)">
                        <path d="M227.621,3181.23L-176.708,3182.43C-159.967,3180.14 -138.375,3176.86 -121.756,3170.05C-100.336,3161.26 -82.039,3145.05 -66.325,3128.42C-9.694,3068.5 -11.026,3067.66 41.194,3004.19C67.985,2971.63 95.878,2934.27 136.336,2917.85C179.875,2900.17 232.232,2915.26 260.001,2953.32C284.479,2986.88 290.681,3047.73 256.169,3077.28C231.47,3098.43 179.86,3093.92 182.853,3052.7C183.351,3045.84 190.074,3054.49 190.594,3055.19C195.25,3061.51 197.631,3068.58 205.488,3072.07C223.375,3080 245.858,3069.3 250.8,3050.2C260.193,3013.88 242.626,2961.38 201.474,2953.66C189.063,2951.34 174.488,2953.5 162.704,2957.48C156.887,2959.44 151.2,2962 146.04,2965.33C94.895,2998.31 79.793,3076.27 117.58,3125.06C134.38,3146.74 155.554,3163 179.808,3172.31C186.026,3174.69 199.629,3179.1 221.058,3175.1C221.536,3175.01 221.985,3174.82 222.442,3174.66C252.814,3164.23 259.836,3178.08 227.621,3181.23Z" style="fill:rgb(22,108,155);"/>
                    </g>
                    <g transform="matrix(1,0,0,1,2155.9,4.54747e-13)">
                        <path d="M227.621,3181.23L230.601,3181.22C229.605,3181.23 228.612,3181.24 227.621,3181.23Z" style="fill:rgb(22,108,155);"/>
                    </g>
                    <g transform="matrix(1,0,0,1,2155.9,4.54747e-13)">
                        <circle cx="40.365" cy="3114.76" r="19.462" style="fill:white;"/>
                    </g>
                    <g transform="matrix(1,0,0,1,2515.61,4.54747e-13)">
                        <circle cx="40.365" cy="3114.76" r="19.462" style="fill:white;"/>
                    </g>
                    <g transform="matrix(1,0,0,1,2515.61,4.54747e-13)">
                        <path d="M227.621,3181.23L-176.708,3182.43C-159.967,3180.14 -138.375,3176.86 -121.756,3170.05C-100.336,3161.26 -82.039,3145.05 -66.325,3128.42C-9.694,3068.5 -11.026,3067.66 41.194,3004.19C67.985,2971.63 95.878,2934.27 136.336,2917.85C179.875,2900.17 232.232,2915.26 260.001,2953.32C284.479,2986.88 290.681,3047.73 256.169,3077.28C231.47,3098.43 179.86,3093.92 182.853,3052.7C183.351,3045.84 190.074,3054.49 190.594,3055.19C195.25,3061.51 197.631,3068.58 205.488,3072.07C223.375,3080 245.858,3069.3 250.8,3050.2C260.193,3013.88 242.626,2961.38 201.474,2953.66C189.063,2951.34 174.488,2953.5 162.704,2957.48C156.887,2959.44 151.2,2962 146.04,2965.33C94.895,2998.31 79.793,3076.27 117.58,3125.06C134.38,3146.74 155.554,3163 179.808,3172.31C186.026,3174.69 199.629,3179.1 221.058,3175.1C221.536,3175.01 221.985,3174.82 222.442,3174.66C252.814,3164.23 259.836,3178.08 227.621,3181.23ZM227.621,3181.23L230.601,3181.22C229.605,3181.23 228.612,3181.24 227.621,3181.23ZM40.365,3095.3C51.107,3095.3 59.828,3104.02 59.828,3114.76C59.828,3125.5 51.107,3134.22 40.365,3134.22C29.624,3134.22 20.903,3125.5 20.903,3114.76C20.903,3104.02 29.624,3095.3 40.365,3095.3Z" style="fill:rgb(22,108,155);"/>
                    </g>
                </g>
            </g>
            <g transform="matrix(1.10665,0,0,1.10665,3464.24,-1247.64)">
                <path d="M227.621,3181.23L-176.708,3182.43C-159.967,3180.14 -138.375,3176.86 -121.756,3170.05C-100.336,3161.26 -82.039,3145.05 -66.325,3128.42C-9.694,3068.5 -11.026,3067.66 41.194,3004.19C67.985,2971.63 95.878,2934.27 136.336,2917.85C179.875,2900.17 232.232,2915.26 260.001,2953.32C284.479,2986.88 290.681,3047.73 256.169,3077.28C231.47,3098.43 179.86,3093.92 182.853,3052.7C183.351,3045.84 190.074,3054.49 190.594,3055.19C195.25,3061.51 197.631,3068.58 205.488,3072.07C223.375,3080 245.858,3069.3 250.8,3050.2C260.193,3013.88 242.626,2961.38 201.474,2953.66C189.063,2951.34 174.488,2953.5 162.704,2957.48C156.887,2959.44 151.2,2962 146.04,2965.33C94.895,2998.31 79.793,3076.27 117.58,3125.06C134.38,3146.74 155.554,3163 179.808,3172.31C186.026,3174.69 199.629,3179.1 221.058,3175.1C221.536,3175.01 221.985,3174.82 222.442,3174.66C252.814,3164.23 259.836,3178.08 227.621,3181.23ZM227.621,3181.23L230.601,3181.22C229.605,3181.23 228.612,3181.24 227.621,3181.23ZM40.365,3095.3C51.107,3095.3 59.828,3104.02 59.828,3114.76C59.828,3125.5 51.107,3134.22 40.365,3134.22C29.624,3134.22 20.903,3125.5 20.903,3114.76C20.903,3104.02 29.624,3095.3 40.365,3095.3Z" style="fill:rgb(22,108,155);"/>
                <g transform="matrix(1,0,0,1,359.714,0)">
                    <path d="M227.621,3181.23L-176.708,3182.43C-159.967,3180.14 -138.375,3176.86 -121.756,3170.05C-100.336,3161.26 -82.039,3145.05 -66.325,3128.42C-9.694,3068.5 -11.026,3067.66 41.194,3004.19C67.985,2971.63 95.878,2934.27 136.336,2917.85C179.875,2900.17 232.232,2915.26 260.001,2953.32C284.479,2986.88 290.681,3047.73 256.169,3077.28C231.47,3098.43 179.86,3093.92 182.853,3052.7C183.351,3045.84 190.074,3054.49 190.594,3055.19C195.25,3061.51 197.631,3068.58 205.488,3072.07C223.375,3080 245.858,3069.3 250.8,3050.2C260.193,3013.88 242.626,2961.38 201.474,2953.66C189.063,2951.34 174.488,2953.5 162.704,2957.48C156.887,2959.44 151.2,2962 146.04,2965.33C94.895,2998.31 79.793,3076.27 117.58,3125.06C134.38,3146.74 155.554,3163 179.808,3172.31C186.026,3174.69 199.629,3179.1 221.058,3175.1C221.536,3175.01 221.985,3174.82 222.442,3174.66C252.814,3164.23 259.836,3178.08 227.621,3181.23Z" style="fill:rgb(22,108,155);"/>
                </g>
                <g transform="matrix(1,0,0,1,359.714,0)">
                    <path d="M227.621,3181.23L230.601,3181.22C229.605,3181.23 228.612,3181.24 227.621,3181.23Z" style="fill:rgb(22,108,155);"/>
                </g>
                <g transform="matrix(1,0,0,1,359.714,0)">
                    <circle cx="40.365" cy="3114.76" r="19.462" style="fill:white;"/>
                </g>
                <circle cx="40.365" cy="3114.76" r="19.462" style="fill:white;"/>
                <g transform="matrix(1,0,0,1,718.632,4.54747e-13)">
                    <path d="M227.621,3181.23L-176.708,3182.43C-159.967,3180.14 -138.375,3176.86 -121.756,3170.05C-100.336,3161.26 -82.039,3145.05 -66.325,3128.42C-9.694,3068.5 -11.026,3067.66 41.194,3004.19C67.985,2971.63 95.878,2934.27 136.336,2917.85C179.875,2900.17 232.232,2915.26 260.001,2953.32C284.479,2986.88 290.681,3047.73 256.169,3077.28C231.47,3098.43 179.86,3093.92 182.853,3052.7C183.351,3045.84 190.074,3054.49 190.594,3055.19C195.25,3061.51 197.631,3068.58 205.488,3072.07C223.375,3080 245.858,3069.3 250.8,3050.2C260.193,3013.88 242.626,2961.38 201.474,2953.66C189.063,2951.34 174.488,2953.5 162.704,2957.48C156.887,2959.44 151.2,2962 146.04,2965.33C94.895,2998.31 79.793,3076.27 117.58,3125.06C134.38,3146.74 155.554,3163 179.808,3172.31C186.026,3174.69 199.629,3179.1 221.058,3175.1C221.536,3175.01 221.985,3174.82 222.442,3174.66C252.814,3164.23 259.836,3178.08 227.621,3181.23Z" style="fill:rgb(22,108,155);"/>
                </g>
                <g transform="matrix(1,0,0,1,718.632,4.54747e-13)">
                    <path d="M227.621,3181.23L230.601,3181.22C229.605,3181.23 228.612,3181.24 227.621,3181.23Z" style="fill:rgb(22,108,155);"/>
                </g>
                <g transform="matrix(1,0,0,1,718.632,4.54747e-13)">
                    <circle cx="40.365" cy="3114.76" r="19.462" style="fill:white;"/>
                </g>
                <g transform="matrix(1,0,0,1,1078.35,0)">
                    <path d="M227.621,3181.23L-176.708,3182.43C-159.967,3180.14 -138.375,3176.86 -121.756,3170.05C-100.336,3161.26 -82.039,3145.05 -66.325,3128.42C-9.694,3068.5 -11.026,3067.66 41.194,3004.19C67.985,2971.63 95.878,2934.27 136.336,2917.85C179.875,2900.17 232.232,2915.26 260.001,2953.32C284.479,2986.88 290.681,3047.73 256.169,3077.28C231.47,3098.43 179.86,3093.92 182.853,3052.7C183.351,3045.84 190.074,3054.49 190.594,3055.19C195.25,3061.51 197.631,3068.58 205.488,3072.07C223.375,3080 245.858,3069.3 250.8,3050.2C260.193,3013.88 242.626,2961.38 201.474,2953.66C189.063,2951.34 174.488,2953.5 162.704,2957.48C156.887,2959.44 151.2,2962 146.04,2965.33C94.895,2998.31 79.793,3076.27 117.58,3125.06C134.38,3146.74 155.554,3163 179.808,3172.31C186.026,3174.69 199.629,3179.1 221.058,3175.1C221.536,3175.01 221.985,3174.82 222.442,3174.66C252.814,3164.23 259.836,3178.08 227.621,3181.23Z" style="fill:rgb(22,108,155);"/>
                </g>
                <g transform="matrix(1,0,0,1,1078.35,0)">
                    <path d="M227.621,3181.23L230.601,3181.22C229.605,3181.23 228.612,3181.24 227.621,3181.23Z" style="fill:rgb(22,108,155);"/>
                </g>
                <g transform="matrix(1,0,0,1,1078.35,0)">
                    <circle cx="40.365" cy="3114.76" r="19.462" style="fill:white;"/>
                </g>
                <g transform="matrix(1,0,0,1,1437.26,0)">
                    <path d="M227.621,3181.23L-176.708,3182.43C-159.967,3180.14 -138.375,3176.86 -121.756,3170.05C-100.336,3161.26 -82.039,3145.05 -66.325,3128.42C-9.694,3068.5 -11.026,3067.66 41.194,3004.19C67.985,2971.63 95.878,2934.27 136.336,2917.85C179.875,2900.17 232.232,2915.26 260.001,2953.32C284.479,2986.88 290.681,3047.73 256.169,3077.28C231.47,3098.43 179.86,3093.92 182.853,3052.7C183.351,3045.84 190.074,3054.49 190.594,3055.19C195.25,3061.51 197.631,3068.58 205.488,3072.07C223.375,3080 245.858,3069.3 250.8,3050.2C260.193,3013.88 242.626,2961.38 201.474,2953.66C189.063,2951.34 174.488,2953.5 162.704,2957.48C156.887,2959.44 151.2,2962 146.04,2965.33C94.895,2998.31 79.793,3076.27 117.58,3125.06C134.38,3146.74 155.554,3163 179.808,3172.31C186.026,3174.69 199.629,3179.1 221.058,3175.1C221.536,3175.01 221.985,3174.82 222.442,3174.66C252.814,3164.23 259.836,3178.08 227.621,3181.23Z" style="fill:rgb(22,108,155);"/>
                </g>
                <g transform="matrix(1,0,0,1,1437.26,0)">
                    <path d="M227.621,3181.23L230.601,3181.22C229.605,3181.23 228.612,3181.24 227.621,3181.23Z" style="fill:rgb(22,108,155);"/>
                </g>
                <g transform="matrix(1,0,0,1,1437.26,0)">
                    <circle cx="40.365" cy="3114.76" r="19.462" style="fill:white;"/>
                </g>
                <g transform="matrix(1,0,0,1,1796.98,4.54747e-13)">
                    <path d="M227.621,3181.23L-176.708,3182.43C-159.967,3180.14 -138.375,3176.86 -121.756,3170.05C-100.336,3161.26 -82.039,3145.05 -66.325,3128.42C-9.694,3068.5 -11.026,3067.66 41.194,3004.19C67.985,2971.63 95.878,2934.27 136.336,2917.85C179.875,2900.17 232.232,2915.26 260.001,2953.32C284.479,2986.88 290.681,3047.73 256.169,3077.28C231.47,3098.43 179.86,3093.92 182.853,3052.7C183.351,3045.84 190.074,3054.49 190.594,3055.19C195.25,3061.51 197.631,3068.58 205.488,3072.07C223.375,3080 245.858,3069.3 250.8,3050.2C260.193,3013.88 242.626,2961.38 201.474,2953.66C189.063,2951.34 174.488,2953.5 162.704,2957.48C156.887,2959.44 151.2,2962 146.04,2965.33C94.895,2998.31 79.793,3076.27 117.58,3125.06C134.38,3146.74 155.554,3163 179.808,3172.31C186.026,3174.69 199.629,3179.1 221.058,3175.1C221.536,3175.01 221.985,3174.82 222.442,3174.66C252.814,3164.23 259.836,3178.08 227.621,3181.23Z" style="fill:rgb(22,108,155);"/>
                </g>
                <g transform="matrix(1,0,0,1,1796.98,4.54747e-13)">
                    <path d="M227.621,3181.23L230.601,3181.22C229.605,3181.23 228.612,3181.24 227.621,3181.23Z" style="fill:rgb(22,108,155);"/>
                </g>
                <g transform="matrix(1,0,0,1,1796.98,4.54747e-13)">
                    <circle cx="40.365" cy="3114.76" r="19.462" style="fill:white;"/>
                </g>
                <g transform="matrix(1,0,0,1,2155.9,4.54747e-13)">
                    <path d="M227.621,3181.23L-176.708,3182.43C-159.967,3180.14 -138.375,3176.86 -121.756,3170.05C-100.336,3161.26 -82.039,3145.05 -66.325,3128.42C-9.694,3068.5 -11.026,3067.66 41.194,3004.19C67.985,2971.63 95.878,2934.27 136.336,2917.85C179.875,2900.17 232.232,2915.26 260.001,2953.32C284.479,2986.88 290.681,3047.73 256.169,3077.28C231.47,3098.43 179.86,3093.92 182.853,3052.7C183.351,3045.84 190.074,3054.49 190.594,3055.19C195.25,3061.51 197.631,3068.58 205.488,3072.07C223.375,3080 245.858,3069.3 250.8,3050.2C260.193,3013.88 242.626,2961.38 201.474,2953.66C189.063,2951.34 174.488,2953.5 162.704,2957.48C156.887,2959.44 151.2,2962 146.04,2965.33C94.895,2998.31 79.793,3076.27 117.58,3125.06C134.38,3146.74 155.554,3163 179.808,3172.31C186.026,3174.69 199.629,3179.1 221.058,3175.1C221.536,3175.01 221.985,3174.82 222.442,3174.66C252.814,3164.23 259.836,3178.08 227.621,3181.23Z" style="fill:rgb(22,108,155);"/>
                </g>
                <g transform="matrix(1,0,0,1,2155.9,4.54747e-13)">
                    <path d="M227.621,3181.23L230.601,3181.22C229.605,3181.23 228.612,3181.24 227.621,3181.23Z" style="fill:rgb(22,108,155);"/>
                </g>
                <g transform="matrix(1,0,0,1,2155.9,4.54747e-13)">
                    <circle cx="40.365" cy="3114.76" r="19.462" style="fill:white;"/>
                </g>
                <g transform="matrix(1,0,0,1,2515.61,4.54747e-13)">
                    <circle cx="40.365" cy="3114.76" r="19.462" style="fill:white;"/>
                </g>
            </g>
        </g>
    </g>
</svg>
